<svg width="48" height="46" viewBox="0 0 48 46" fill="none" xmlns="http://www.w3.org/2000/svg">
<path fill-rule="evenodd" clip-rule="evenodd" d="M8.75293 8.50387C8.99518 8.03906 9.47583 7.74756 9.99997 7.74756H38C38.5241 7.74756 39.0047 8.03903 39.247 8.50379C39.4892 8.96855 39.4529 9.52947 39.1528 9.95913L27.7194 26.3261V39.0646C27.7194 39.5668 27.4516 40.0309 27.0168 40.2822L22.3923 42.9547C21.9572 43.2061 21.4211 43.2063 20.9858 42.9551C20.5506 42.704 20.2824 42.2397 20.2824 41.7371V26.3244L8.84725 9.95928C8.54704 9.52963 8.51068 8.96867 8.75293 8.50387ZM12.6981 10.5601L22.8414 25.0763C23.0064 25.3124 23.0949 25.5936 23.0949 25.8817V39.3003L24.9069 38.2531V25.8836C24.9069 25.5955 24.9953 25.3144 25.1603 25.0782L35.3022 10.5601H12.6981Z" fill="black"/>
</svg>
