<svg width="16" height="16" viewBox="0 0 16 16" fill="none" xmlns="http://www.w3.org/2000/svg">
<path fill-rule="evenodd" clip-rule="evenodd" d="M13 4H11.98C11.876 2.1367 11.2129 0 7 0C6.44772 0 6 0.447715 6 1C6 2.8135 5.9812 4.3948 4.5514 6H1C0.447715 6 0 6.44772 0 7V15C0 15.5523 0.447715 16 1 16H13C14.6561 15.9982 15.9982 14.6561 16 13V7C15.9982 5.3439 14.6561 4.00182 13 4ZM2 8H4V14H2V8ZM13 14C13.552 13.9993 13.9993 13.552 14 13V7C13.9993 6.44801 13.552 6.00072 13 6H11C10.4477 6 10 5.55228 10 5C10 3.252 10 2.2656 7.9893 2.0469C8.0426 4.02125 7.32971 5.9396 6 7.4V14H13Z" fill="#27AE60"/>
</svg>
